<svg xmlns="http://www.w3.org/2000/svg" xmlns:xlink="http://www.w3.org/1999/xlink" width="74.667" height="172" viewBox="0 0 74.667 172"><defs><style>.a{fill:#fff;stroke:#707070;}.b{clip-path:url(#a);}.c{fill:#f6ef12;}.d{filter:url(#b);}</style><clipPath id="a"><path class="a" d="M28-17.333,102.667-6.667V154.667L28,124Z" transform="translate(1260 159)"/></clipPath><filter id="b" x="0" y="46.648" width="74.667" height="78.703" filterUnits="userSpaceOnUse"><feOffset dy="0.877" input="SourceAlpha"/><feGaussianBlur stdDeviation="0.877" result="c"/><feFlood flood-opacity="0.322"/><feComposite operator="in" in2="c"/><feComposite in="SourceGraphic"/></filter></defs><g class="b" transform="translate(-1288 -141.667)"><g class="d" transform="matrix(1, 0, 0, 1, 1288, 141.67)"><path class="c" d="M67.008,81H8.731a5.478,5.478,0,0,1-2.744-.718,5.611,5.611,0,0,1-2.8-4.4,5.478,5.478,0,0,1,.512-2.79L32.836,10.766a5.52,5.52,0,0,1,2.135-2.4,5.647,5.647,0,0,1,5.8,0,5.52,5.52,0,0,1,2.135,2.4L72.042,73.093a5.478,5.478,0,0,1,.512,2.79,5.611,5.611,0,0,1-2.8,4.4A5.478,5.478,0,0,1,67.008,81ZM33.629,42.694V71.937h8.48V42.694Zm4.24-12.282a3.958,3.958,0,1,0,4.24,3.948A4.106,4.106,0,0,0,37.869,30.412Z" transform="translate(-0.54 40.84)"/></g></g></svg>