<?xml version="1.0" encoding="UTF-8"?>
<svg xmlns="http://www.w3.org/2000/svg" xmlns:xlink="http://www.w3.org/1999/xlink" width="50pt" height="50pt" viewBox="0 0 50 50" version="1.1">
<g id="surface1">
<path style=" stroke:none;fill-rule:nonzero;fill:rgb(100%,100%,100%);fill-opacity:1;" d="M 29.59375 29.84375 C 29.59375 28.378906 28.40625 27.191406 26.941406 27.191406 C 26.882812 27.191406 26.828125 27.191406 26.773438 27.195312 L 26.773438 27.53125 C 26.828125 27.527344 26.882812 27.523438 26.941406 27.523438 C 28.222656 27.523438 29.261719 28.5625 29.261719 29.84375 C 29.261719 31.121094 28.222656 32.164062 26.941406 32.164062 C 26.90625 32.164062 26.867188 32.160156 26.828125 32.15625 L 26.828125 33.152344 L 26.007812 33.152344 L 26.007812 33.597656 L 27.875 33.597656 L 27.875 33.152344 L 27.164062 33.152344 L 27.164062 32.484375 C 28.523438 32.371094 29.59375 31.230469 29.59375 29.84375 Z M 29.59375 29.84375 "/>
<path style=" stroke:none;fill-rule:nonzero;fill:rgb(100%,100%,100%);fill-opacity:1;" d="M 36.324219 11.089844 L 36.367188 11.460938 L 35.820312 11.578125 L 35.742188 12.363281 L 36.410156 12.363281 L 37.292969 12.28125 L 37.746094 11.734375 L 37.261719 11.546875 L 36.996094 11.242188 L 36.597656 10.59375 L 36.410156 9.683594 L 35.65625 9.832031 L 35.445312 10.15625 L 35.445312 10.519531 L 35.808594 10.765625 Z M 36.324219 11.089844 "/>
<path style=" stroke:none;fill-rule:nonzero;fill:rgb(100%,100%,100%);fill-opacity:1;" d="M 35.683594 11.394531 L 35.722656 10.898438 L 35.285156 10.710938 L 34.671875 10.851562 L 34.210938 11.585938 L 34.210938 12.058594 L 34.742188 12.058594 Z M 35.683594 11.394531 "/>
<path style=" stroke:none;fill-rule:nonzero;fill:rgb(100%,100%,100%);fill-opacity:1;" d="M 23.023438 13.492188 L 22.886719 13.839844 L 22.230469 13.839844 L 22.230469 14.179688 L 22.386719 14.179688 C 22.386719 14.179688 22.398438 14.25 22.410156 14.347656 L 22.8125 14.3125 L 23.0625 14.15625 L 23.125 13.84375 L 23.453125 13.8125 L 23.578125 13.550781 L 23.285156 13.488281 Z M 23.023438 13.492188 "/>
<path style=" stroke:none;fill-rule:nonzero;fill:rgb(100%,100%,100%);fill-opacity:1;" d="M 21.332031 14.109375 L 21.308594 14.4375 L 21.785156 14.398438 L 21.832031 14.0625 L 21.546875 13.839844 Z M 21.332031 14.109375 "/>
<path style=" stroke:none;fill-rule:nonzero;fill:rgb(100%,100%,100%);fill-opacity:1;" d="M 49.84375 24.667969 C 49.835938 23.941406 49.800781 23.214844 49.730469 22.503906 C 49.5 20.128906 48.933594 17.851562 48.078125 15.71875 C 48.015625 15.5625 47.960938 15.398438 47.890625 15.242188 C 46.757812 12.5625 45.167969 10.125 43.214844 8.019531 C 43.089844 7.878906 42.960938 7.746094 42.832031 7.613281 C 42.460938 7.226562 42.085938 6.851562 41.691406 6.5 C 37.261719 2.460938 31.375 0 24.925781 0 C 18.421875 0 12.492188 2.507812 8.050781 6.601562 C 7.011719 7.558594 6.0625 8.601562 5.199219 9.714844 C 1.945312 13.925781 0 19.203125 0 24.925781 C 0 38.667969 11.179688 49.851562 24.925781 49.851562 C 34.59375 49.851562 42.984375 44.3125 47.121094 36.25 C 48 34.527344 48.6875 32.6875 49.152344 30.757812 C 49.269531 30.273438 49.375 29.78125 49.460938 29.28125 C 49.714844 27.863281 49.851562 26.410156 49.851562 24.921875 C 49.847656 24.839844 49.84375 24.757812 49.84375 24.667969 Z M 45.152344 14.707031 L 45.292969 14.546875 C 45.484375 14.914062 45.664062 15.285156 45.832031 15.664062 L 45.59375 15.65625 L 45.148438 15.71875 L 45.148438 14.707031 Z M 41.550781 10.359375 L 41.554688 9.246094 C 41.945312 9.65625 42.320312 10.089844 42.679688 10.53125 L 42.234375 11.199219 L 40.664062 11.183594 L 40.566406 10.855469 Z M 11.484375 7.589844 L 11.484375 7.550781 L 11.980469 7.550781 L 12.027344 7.378906 L 12.839844 7.378906 L 12.839844 7.738281 L 12.605469 8.046875 L 11.480469 8.046875 L 11.480469 7.589844 Z M 12.28125 8.703125 C 12.28125 8.703125 12.78125 8.621094 12.824219 8.621094 C 12.863281 8.621094 12.824219 9.117188 12.824219 9.117188 L 11.695312 9.191406 L 11.480469 8.929688 Z M 46.738281 18.597656 L 44.917969 18.597656 L 43.804688 17.769531 L 42.632812 17.882812 L 42.632812 18.597656 L 42.261719 18.597656 L 41.863281 18.3125 L 39.839844 17.800781 L 39.839844 16.488281 L 37.273438 16.6875 L 36.476562 17.113281 L 35.457031 17.113281 L 34.957031 17.0625 L 33.71875 17.753906 L 33.71875 19.046875 L 31.191406 20.867188 L 31.402344 21.648438 L 31.914062 21.648438 L 31.777344 22.390625 L 31.417969 22.523438 L 31.402344 24.464844 L 33.582031 26.953125 L 34.539062 26.953125 L 34.59375 26.804688 L 36.304688 26.804688 L 36.796875 26.347656 L 37.769531 26.347656 L 38.300781 26.878906 L 39.742188 27.027344 L 39.554688 28.949219 L 41.160156 31.78125 L 40.3125 33.398438 L 40.371094 34.15625 L 41.035156 34.820312 L 41.035156 36.648438 L 41.90625 37.824219 L 41.90625 39.347656 L 42.664062 39.347656 C 38.464844 44.503906 32.074219 47.800781 24.917969 47.800781 C 12.304688 47.800781 2.046875 37.542969 2.046875 24.929688 C 2.046875 21.75 2.695312 18.726562 3.871094 15.976562 L 3.871094 15.261719 L 4.691406 14.269531 C 4.972656 13.734375 5.277344 13.210938 5.605469 12.699219 L 5.636719 13.117188 L 4.691406 14.269531 C 4.394531 14.824219 4.117188 15.394531 3.871094 15.976562 L 3.871094 17.277344 L 4.820312 17.734375 L 4.820312 19.542969 L 5.734375 21.097656 L 6.476562 21.210938 L 6.570312 20.679688 L 5.699219 19.332031 L 5.523438 18.015625 L 6.039062 18.015625 L 6.257812 19.367188 L 7.523438 21.210938 L 7.195312 21.808594 L 7.996094 23.035156 L 9.992188 23.53125 L 9.992188 23.207031 L 10.789062 23.320312 L 10.714844 23.890625 L 11.339844 24.003906 L 12.3125 24.269531 L 13.679688 25.828125 L 15.425781 25.960938 L 15.601562 27.386719 L 14.402344 28.222656 L 14.347656 29.496094 L 14.175781 30.277344 L 15.902344 32.441406 L 16.039062 33.183594 C 16.039062 33.183594 16.664062 33.351562 16.742188 33.351562 C 16.816406 33.351562 18.148438 34.363281 18.148438 34.363281 L 18.148438 38.273438 L 18.621094 38.410156 L 18.300781 40.214844 L 19.097656 41.28125 L 18.949219 43.074219 L 20.003906 44.925781 L 21.359375 46.109375 L 22.71875 46.136719 L 22.851562 45.699219 L 21.851562 44.855469 L 21.910156 44.4375 L 22.085938 43.921875 L 22.125 43.402344 L 21.449219 43.382812 L 21.109375 42.953125 L 21.671875 42.410156 L 21.746094 42.003906 L 21.117188 41.824219 L 21.15625 41.441406 L 22.046875 41.304688 L 23.410156 40.65625 L 23.863281 39.816406 L 25.289062 37.992188 L 24.964844 36.566406 L 25.402344 35.808594 L 26.714844 35.84375 L 27.597656 35.144531 L 27.882812 32.390625 L 28.871094 31.152344 L 29.042969 30.359375 L 28.148438 30.070312 L 27.558594 29.101562 L 25.542969 29.082031 L 23.945312 28.472656 L 23.875 27.335938 L 23.339844 26.402344 L 21.898438 26.382812 L 21.058594 25.070312 L 20.320312 24.710938 L 20.28125 25.109375 L 18.929688 25.1875 L 18.4375 24.5 L 17.027344 24.214844 L 15.867188 25.554688 L 14.042969 25.246094 L 13.914062 23.1875 L 12.582031 22.960938 L 13.113281 21.953125 L 12.960938 21.371094 L 11.210938 22.542969 L 10.109375 22.40625 L 9.714844 21.546875 L 9.960938 20.660156 L 10.566406 19.539062 L 11.960938 18.832031 L 14.660156 18.832031 L 14.652344 19.65625 L 15.621094 20.105469 L 15.542969 18.699219 L 16.242188 17.996094 L 17.652344 17.070312 L 17.753906 16.417969 L 19.160156 14.957031 L 20.652344 14.125 L 20.523438 14.019531 L 21.535156 13.0625 L 21.90625 13.164062 L 22.078125 13.375 L 22.460938 12.949219 L 22.558594 12.90625 L 22.136719 12.847656 L 21.707031 12.710938 L 21.707031 12.292969 L 21.933594 12.109375 L 22.433594 12.109375 L 22.664062 12.210938 L 22.863281 12.609375 L 23.101562 12.574219 L 23.101562 12.539062 L 23.171875 12.5625 L 23.875 12.453125 L 23.976562 12.109375 L 24.375 12.210938 L 24.375 12.582031 L 24 12.835938 L 24.003906 12.835938 L 24.054688 13.246094 L 25.328125 13.636719 C 25.328125 13.636719 25.328125 13.640625 25.332031 13.652344 L 25.625 13.625 L 25.644531 13.074219 L 24.636719 12.617188 L 24.578125 12.351562 L 25.414062 12.070312 L 25.453125 11.269531 L 24.578125 10.738281 L 24.523438 9.386719 L 23.324219 9.976562 L 22.886719 9.976562 L 23 8.949219 L 21.371094 8.566406 L 20.695312 9.078125 L 20.695312 10.628906 L 19.484375 11.015625 L 19 12.027344 L 18.472656 12.109375 L 18.472656 10.816406 L 17.335938 10.65625 L 16.761719 10.28125 L 16.53125 9.445312 L 18.574219 8.25 L 19.570312 7.949219 L 19.671875 8.621094 L 20.230469 8.589844 L 20.273438 8.25 L 20.855469 8.171875 L 20.863281 8.050781 L 20.617188 7.949219 L 20.558594 7.589844 L 21.273438 7.535156 L 21.707031 7.082031 L 21.726562 7.050781 L 21.734375 7.050781 L 21.863281 6.917969 L 23.367188 6.726562 L 24.03125 7.289062 L 22.289062 8.214844 L 24.507812 8.738281 L 24.792969 8 L 25.761719 8 L 26.101562 7.351562 L 25.417969 7.183594 L 25.417969 6.363281 L 23.273438 5.414062 L 21.789062 5.585938 L 20.953125 6.023438 L 21.007812 7.085938 L 20.132812 6.957031 L 20 6.363281 L 20.839844 5.605469 L 19.316406 5.53125 L 18.878906 5.660156 L 18.691406 6.175781 L 19.261719 6.273438 L 19.148438 6.839844 L 18.179688 6.898438 L 18.027344 7.28125 L 16.617188 7.320312 C 16.617188 7.320312 16.582031 6.523438 16.519531 6.523438 C 16.464844 6.523438 17.625 6.5 17.625 6.5 L 18.460938 5.683594 L 18.003906 5.457031 L 17.398438 6.046875 L 16.390625 5.988281 L 15.777344 5.148438 L 14.484375 5.148438 L 13.132812 6.15625 L 14.371094 6.15625 L 14.480469 6.519531 L 14.15625 6.820312 L 15.527344 6.859375 L 15.734375 7.351562 L 14.195312 7.296875 L 14.121094 6.917969 L 13.152344 6.707031 L 12.632812 6.421875 L 11.484375 6.433594 C 15.257812 3.683594 19.902344 2.050781 24.921875 2.050781 C 30.707031 2.050781 35.992188 4.214844 40.023438 7.765625 L 39.753906 8.25 L 38.699219 8.667969 L 38.25 9.148438 L 38.355469 9.710938 L 38.898438 9.785156 L 39.226562 10.605469 L 40.164062 10.226562 L 40.324219 11.328125 L 40.035156 11.328125 L 39.265625 11.210938 L 38.410156 11.355469 L 37.585938 12.523438 L 36.402344 12.707031 L 36.230469 13.722656 L 36.730469 13.835938 L 36.585938 14.488281 L 35.410156 14.253906 L 34.335938 14.488281 L 34.105469 15.089844 L 34.292969 16.347656 L 34.921875 16.640625 L 35.988281 16.636719 L 36.703125 16.574219 L 36.921875 16.003906 L 38.046875 14.546875 L 38.78125 14.699219 L 39.503906 14.039062 L 39.640625 14.554688 L 41.425781 15.757812 L 41.207031 16.050781 L 40.402344 16.011719 L 40.714844 16.449219 L 41.210938 16.558594 L 41.792969 16.316406 L 41.78125 15.621094 L 42.039062 15.488281 L 41.832031 15.265625 L 40.640625 14.605469 L 40.328125 13.722656 L 41.316406 13.722656 L 41.628906 14.035156 L 42.484375 14.769531 L 42.519531 15.660156 L 43.40625 16.601562 L 43.734375 15.3125 L 44.347656 14.976562 L 44.460938 16.03125 L 45.058594 16.6875 L 46.25 16.667969 C 46.484375 17.261719 46.6875 17.867188 46.871094 18.480469 Z M 13.59375 11.328125 L 14.1875 11.042969 L 14.734375 11.167969 L 14.546875 11.898438 L 13.960938 12.082031 Z M 16.769531 13.039062 L 16.769531 13.507812 L 15.402344 13.507812 L 14.890625 13.363281 L 15.015625 13.039062 L 15.675781 12.769531 L 16.574219 12.769531 L 16.574219 13.039062 Z M 17.402344 13.695312 L 17.402344 14.148438 L 17.054688 14.371094 L 16.628906 14.449219 C 16.628906 14.449219 16.628906 13.765625 16.628906 13.695312 Z M 17.015625 13.507812 L 17.015625 12.964844 L 17.484375 13.394531 Z M 17.230469 14.605469 L 17.230469 15.050781 L 16.902344 15.375 L 16.175781 15.375 L 16.289062 14.878906 L 16.628906 14.847656 L 16.699219 14.675781 Z M 15.417969 13.695312 L 16.175781 13.695312 L 15.203125 15.050781 L 14.804688 14.835938 L 14.890625 14.265625 Z M 18.511719 14.449219 L 18.511719 14.890625 L 17.78125 14.890625 L 17.582031 14.605469 L 17.582031 14.191406 L 17.640625 14.191406 Z M 17.84375 13.839844 L 18.050781 13.621094 L 18.398438 13.839844 L 18.117188 14.074219 Z M 47.109375 19.753906 L 47.179688 19.667969 C 47.210938 19.796875 47.242188 19.925781 47.273438 20.058594 Z M 47.109375 19.753906 "/>
<path style=" stroke:none;fill-rule:nonzero;fill:rgb(100%,100%,100%);fill-opacity:1;" d="M 3.875 15.261719 L 3.875 15.972656 C 4.121094 15.390625 4.398438 14.824219 4.691406 14.269531 Z M 3.875 15.261719 "/>
</g>
</svg>
