<svg xmlns="http://www.w3.org/2000/svg" width="16.755" height="14.609" viewBox="0 0 16.755 14.609"><defs><style>.a{fill:none;stroke:#004040;stroke-miterlimit:10;stroke-width:0.8px;}</style></defs><g transform="translate(-257.623 -829.724)"><path class="a" d="M13.049,7.4a27.8,27.8,0,0,1-3.915,2.713A28.186,28.186,0,0,1,5.2,7.384C3.343,5.836,1.142,3.476,1.142,1.008a5.217,5.217,0,0,1,1.049-3.28A3.717,3.717,0,0,1,5.175-3.636,3.694,3.694,0,0,1,8.587-1.567L9.134-.218l.547-1.349a3.631,3.631,0,0,1,3.4-2.069,3.688,3.688,0,0,1,2.969,1.364A5.217,5.217,0,0,1,17.1,1.008C17.111,3.476,14.9,5.852,13.049,7.4Z" transform="translate(256.881 833.76)"/></g></svg>