<svg xmlns="http://www.w3.org/2000/svg" xmlns:xlink="http://www.w3.org/1999/xlink" width="16" height="16" viewBox="0 0 16 16"><defs><style>.a{fill:#fff;stroke:#707070;}.b{clip-path:url(#a);}</style><clipPath id="a"><rect class="a" width="16" height="16" transform="translate(187 829)"/></clipPath></defs><g class="b" transform="translate(-187 -829)"><g transform="translate(186.273 827.091)"><path d="M8.727,16.545,6,13.455H1.818A1.071,1.071,0,0,1,.727,12.364v-8A1.071,1.071,0,0,1,1.818,3.273H15.636a1.071,1.071,0,0,1,1.091,1.091v8a1.071,1.071,0,0,1-1.091,1.091H11.455ZM1.818,4a.344.344,0,0,0-.364.364v8a.344.344,0,0,0,.364.364H6.364l2.364,2.727,2.364-2.727h4.545A.344.344,0,0,0,16,12.364v-8A.344.344,0,0,0,15.636,4Z"/></g></g></svg>