<svg xmlns="http://www.w3.org/2000/svg" width="16" height="16" viewBox="0 0 16 16"><defs><style>.a{opacity:0.86;}.b{fill:#fff;}</style></defs><g class="a"><path class="b" d="M1.818,2.667H14.182c1,0,1.818-.6,1.818-1.333S15.185,0,14.182,0H1.818C.815,0,0,.6,0,1.333S.815,2.667,1.818,2.667Z"/><path class="b" d="M14.182,9.273H1.818C.815,9.273,0,9.822,0,10.5s.815,1.224,1.818,1.224H14.182c1,0,1.818-.549,1.818-1.224S15.185,9.273,14.182,9.273Z" transform="translate(0 -2.555)"/><path class="b" d="M14.182,18.545H1.818c-1,0-1.818.561-1.818,1.25s.815,1.25,1.818,1.25H14.182c1,0,1.818-.561,1.818-1.25S15.185,18.545,14.182,18.545Z" transform="translate(0 -5.045)"/></g></svg>