<svg xmlns="http://www.w3.org/2000/svg" xmlns:xlink="http://www.w3.org/1999/xlink" width="16" height="16" viewBox="0 0 16 16"><defs><style>.a,.c{fill:#fff;}.a{stroke:#707070;}.b{clip-path:url(#a);}</style><clipPath id="a"><rect class="a" width="16" height="16" transform="translate(208 8)"/></clipPath></defs><g class="b" transform="translate(-208 -8)"><path class="c" d="M16.667,8.667A8,8,0,1,0,3.116,14.415a.488.488,0,0,0,.126.115,7.953,7.953,0,0,0,10.85,0,.488.488,0,0,0,.126-.115A7.972,7.972,0,0,0,16.667,8.667Zm-8-7A6.99,6.99,0,0,1,14.153,13,4.768,4.768,0,0,0,10.8,10a3.649,3.649,0,1,0-4.269,0A4.768,4.768,0,0,0,3.18,13,6.99,6.99,0,0,1,8.667,1.667ZM6.018,7.054A2.649,2.649,0,1,1,8.667,9.7,2.65,2.65,0,0,1,6.018,7.054Zm-2,6.834c.15-1.833,2.094-3.19,4.646-3.19s4.5,1.357,4.646,3.19a6.958,6.958,0,0,1-9.292,0Z" transform="translate(207.333 7.333)"/></g></svg>