<svg xmlns="http://www.w3.org/2000/svg" width="17.096" height="16.99" viewBox="0 0 17.096 16.99"><defs><style>.a{fill:none;stroke:#fff;}</style></defs><g transform="translate(0.559 0.5)"><g transform="translate(0 0)"><path class="a" d="M7.992,0a3.265,3.265,0,0,1,.791.1A3.365,3.365,0,0,1,9.22.25c.055.023.112.037.166.062.023.011.04.031.062.042a3.679,3.679,0,0,1,.4.229c.018.012.045.009.062.021.037.026.067.056.1.083.1.075.214.144.312.229s.166.181.25.27a4.471,4.471,0,0,1,.728.957,5.835,5.835,0,0,1,.707,1.977.278.278,0,0,1,.146,0c.35.114.436.778.208,1.477a1.972,1.972,0,0,1-.583.916A4.972,4.972,0,0,1,9.99,9.3v.687l.666.666,1.332.666q1.616.8,3.226,1.6a1.792,1.792,0,0,1,.77,1.727c-.028.417.123.95-.291,1.228a3.292,3.292,0,0,1-1.29.1H5.328c-1.576,0-3.148,0-4.724,0-.511-.036-.653-.576-.6-1a2.3,2.3,0,0,1,.437-1.79,5.989,5.989,0,0,1,1.436-.832c.707-.35,1.417-.691,2.123-1.04l1.332-.666.666-.666V9.3A4.974,4.974,0,0,1,4.2,6.514,1.971,1.971,0,0,1,3.622,5.6c-.228-.7-.142-1.364.208-1.477a.278.278,0,0,1,.146,0,5.837,5.837,0,0,1,.707-1.977,4.47,4.47,0,0,1,.729-.957c.084-.089.16-.19.25-.27,0,0,.017,0,.021,0A3.786,3.786,0,0,1,6.535.354c.077-.037.151-.072.229-.1.056-.023.11-.043.166-.062A3.283,3.283,0,0,1,7.451.042c.013,0,.028,0,.041,0A2.981,2.981,0,0,1,7.992,0Z" transform="translate(0.008 0)"/><path class="a" d="M15.982,700.156a.656.656,0,0,1-.291.533c-.393.2-.863.067-1.29.133H.6a.7.7,0,0,1-.6-.666Z" transform="translate(0.009 -684.84)"/></g></g></svg>