<svg xmlns="http://www.w3.org/2000/svg" xmlns:xlink="http://www.w3.org/1999/xlink" width="16" height="16" viewBox="0 0 16 16"><defs><style>.a{fill:#fff;stroke:#707070;}.b{clip-path:url(#a);}.c{fill:#a6adb4;}.d{fill:#dc1515;}</style><clipPath id="a"><rect class="a" width="16" height="16"/></clipPath></defs><g class="b"><g transform="translate(5.167 0)"><path class="c" d="M1.722,0H3.876C4.827,0,5.6.488,5.6,1.09L3.876,3.421,5.6,6.358c0,.6-1.3,1.09-2.249,1.09L2.871,16,2.2,7.447c-.951,0-2.2-.488-2.2-1.09L1.722,3.421,0,1.09C0,.488.771,0,1.722,0Z" transform="translate(0 0)"/><path class="d" d="M-2443.755,1091.233h-2.737a3.111,3.111,0,0,1-.981-.4.782.782,0,0,1-.43-.6l1.723-2.937-1.723-2.331c0-.6.773-1.09,1.723-1.09h2.153c.95,0,1.722.489,1.722,1.09l-1.722,2.331,1.722,2.937c0,.206-.154.413-.444.6A3.281,3.281,0,0,1-2443.755,1091.233Z" transform="translate(2447.903 -1083.881)"/></g></g></svg>