<svg xmlns="http://www.w3.org/2000/svg" xmlns:xlink="http://www.w3.org/1999/xlink" width="24" height="20" viewBox="0 0 24 20"><defs><style>.a,.c{fill:#46e146;}.a{stroke:#707070;}.b{clip-path:url(#a);}</style><clipPath id="a"><rect class="a" width="24" height="20"/></clipPath></defs><g class="b"><g transform="translate(0 1.41)"><path class="c" d="M2.578,12.86H22.631l-6.91-6.224A.857.857,0,1,1,16.87,5.367l8.573,7.716h0a.72.72,0,0,1,.154.206l.051.069a.857.857,0,0,1,0,.686l-.051.069a.72.72,0,0,1-.154.206h0L16.87,22.034A.844.844,0,1,1,15.721,20.8l6.91-6.224H2.578a.857.857,0,0,1,0-1.715Z" transform="translate(-1.72 -5.11)"/></g></g></svg>